<mxfile host="app.diagrams.net" modified="2023-03-30T10:51:09.015Z" agent="Mozilla/5.0 (Windows NT 10.0; Win64; x64) AppleWebKit/537.36 (KHTML, like Gecko) Chrome/111.0.0.0 Safari/537.36" etag="vDIVCHjUgx_6cFjGQsXV" version="21.1.1" type="github">
  <diagram id="CAy6h7JlMK9Nz8kqikin" name="Page-1">
    <mxGraphModel dx="2474" dy="764" grid="1" gridSize="10" guides="1" tooltips="1" connect="1" arrows="1" fold="1" page="0" pageScale="1" pageWidth="850" pageHeight="1100" math="0" shadow="0">
      <root>
        <mxCell id="0" />
        <mxCell id="1" parent="0" />
        <mxCell id="Jo31wumn8B36piIQokWZ-1" value="" style="whiteSpace=wrap;html=1;aspect=fixed;" parent="1" vertex="1">
          <mxGeometry x="200" y="80" width="160" height="160" as="geometry" />
        </mxCell>
        <mxCell id="Jo31wumn8B36piIQokWZ-2" value="" style="whiteSpace=wrap;html=1;aspect=fixed;" parent="1" vertex="1">
          <mxGeometry x="200" y="320" width="160" height="160" as="geometry" />
        </mxCell>
        <mxCell id="Jo31wumn8B36piIQokWZ-5" value="" style="whiteSpace=wrap;html=1;aspect=fixed;" parent="1" vertex="1">
          <mxGeometry x="600" y="200" width="160" height="160" as="geometry" />
        </mxCell>
        <mxCell id="Jo31wumn8B36piIQokWZ-6" value="" style="aspect=fixed;html=1;points=[];align=center;image;fontSize=12;image=img/lib/azure2/networking/Private_Endpoint.svg;" parent="1" vertex="1">
          <mxGeometry x="327.27" y="145" width="32.73" height="30" as="geometry" />
        </mxCell>
        <mxCell id="Jo31wumn8B36piIQokWZ-8" value="" style="aspect=fixed;html=1;points=[];align=center;image;fontSize=12;image=img/lib/azure2/networking/Private_Endpoint.svg;" parent="1" vertex="1">
          <mxGeometry x="327.27" y="380" width="32.73" height="30" as="geometry" />
        </mxCell>
        <mxCell id="Jo31wumn8B36piIQokWZ-9" value="" style="aspect=fixed;html=1;points=[];align=center;image;fontSize=12;image=img/lib/azure2/networking/Virtual_Networks.svg;" parent="1" vertex="1">
          <mxGeometry x="200" y="300" width="33.5" height="20" as="geometry" />
        </mxCell>
        <mxCell id="Jo31wumn8B36piIQokWZ-10" value="" style="aspect=fixed;html=1;points=[];align=center;image;fontSize=12;image=img/lib/azure2/networking/Virtual_Networks.svg;" parent="1" vertex="1">
          <mxGeometry x="200" y="60" width="33.5" height="20" as="geometry" />
        </mxCell>
        <mxCell id="Jo31wumn8B36piIQokWZ-11" value="prod01-vnet-kr" style="text;html=1;align=center;verticalAlign=middle;resizable=0;points=[];autosize=1;strokeColor=none;fillColor=none;" parent="1" vertex="1">
          <mxGeometry x="230" y="295" width="100" height="30" as="geometry" />
        </mxCell>
        <mxCell id="Jo31wumn8B36piIQokWZ-12" value="prod01-vnet" style="text;html=1;align=center;verticalAlign=middle;resizable=0;points=[];autosize=1;strokeColor=none;fillColor=none;" parent="1" vertex="1">
          <mxGeometry x="230" y="55" width="90" height="30" as="geometry" />
        </mxCell>
        <mxCell id="Jo31wumn8B36piIQokWZ-13" value="" style="whiteSpace=wrap;html=1;aspect=fixed;" parent="1" vertex="1">
          <mxGeometry x="-200" y="200" width="160" height="160" as="geometry" />
        </mxCell>
        <mxCell id="Jo31wumn8B36piIQokWZ-15" value="" style="aspect=fixed;html=1;points=[];align=center;image;fontSize=12;image=img/lib/azure2/networking/Virtual_Networks.svg;" parent="1" vertex="1">
          <mxGeometry x="-200" y="175" width="33.5" height="20" as="geometry" />
        </mxCell>
        <mxCell id="Jo31wumn8B36piIQokWZ-16" value="WVD" style="text;html=1;align=center;verticalAlign=middle;resizable=0;points=[];autosize=1;strokeColor=none;fillColor=none;" parent="1" vertex="1">
          <mxGeometry x="-170" y="170" width="50" height="30" as="geometry" />
        </mxCell>
        <mxCell id="Jo31wumn8B36piIQokWZ-19" value="" style="endArrow=none;html=1;rounded=0;exitX=1;exitY=0.25;exitDx=0;exitDy=0;entryX=0;entryY=0.5;entryDx=0;entryDy=0;" parent="1" source="Jo31wumn8B36piIQokWZ-13" target="Jo31wumn8B36piIQokWZ-1" edge="1">
          <mxGeometry width="50" height="50" relative="1" as="geometry">
            <mxPoint x="30" y="240" as="sourcePoint" />
            <mxPoint x="80" y="190" as="targetPoint" />
          </mxGeometry>
        </mxCell>
        <mxCell id="Jo31wumn8B36piIQokWZ-20" value="" style="endArrow=none;html=1;rounded=0;exitX=1;exitY=0.75;exitDx=0;exitDy=0;entryX=0;entryY=0.5;entryDx=0;entryDy=0;strokeColor=#0000FF;" parent="1" source="Jo31wumn8B36piIQokWZ-13" target="Jo31wumn8B36piIQokWZ-2" edge="1">
          <mxGeometry width="50" height="50" relative="1" as="geometry">
            <mxPoint x="50" y="390" as="sourcePoint" />
            <mxPoint x="100" y="340" as="targetPoint" />
          </mxGeometry>
        </mxCell>
        <mxCell id="Jo31wumn8B36piIQokWZ-21" value="peering" style="text;html=1;align=center;verticalAlign=middle;resizable=0;points=[];autosize=1;strokeColor=none;fillColor=none;" parent="1" vertex="1">
          <mxGeometry x="40" y="165" width="60" height="30" as="geometry" />
        </mxCell>
        <mxCell id="Jo31wumn8B36piIQokWZ-22" value="peering" style="text;html=1;align=center;verticalAlign=middle;resizable=0;points=[];autosize=1;strokeColor=none;fillColor=none;" parent="1" vertex="1">
          <mxGeometry x="40" y="320" width="60" height="30" as="geometry" />
        </mxCell>
        <mxCell id="Jo31wumn8B36piIQokWZ-23" value="" style="aspect=fixed;html=1;points=[];align=center;image;fontSize=12;image=img/lib/azure2/networking/Private_Link.svg;" parent="1" vertex="1">
          <mxGeometry x="600" y="260" width="32.73" height="30" as="geometry" />
        </mxCell>
        <mxCell id="Jo31wumn8B36piIQokWZ-24" value="" style="endArrow=none;html=1;rounded=0;exitX=1.037;exitY=0.693;exitDx=0;exitDy=0;exitPerimeter=0;entryX=0.037;entryY=0.673;entryDx=0;entryDy=0;entryPerimeter=0;strokeColor=#33FF33;" parent="1" source="Jo31wumn8B36piIQokWZ-6" target="Jo31wumn8B36piIQokWZ-23" edge="1">
          <mxGeometry width="50" height="50" relative="1" as="geometry">
            <mxPoint x="470" y="240" as="sourcePoint" />
            <mxPoint x="520" y="190" as="targetPoint" />
          </mxGeometry>
        </mxCell>
        <mxCell id="Jo31wumn8B36piIQokWZ-25" value="" style="endArrow=none;html=1;rounded=0;exitX=1.061;exitY=0.647;exitDx=0;exitDy=0;exitPerimeter=0;entryX=0;entryY=0.5;entryDx=0;entryDy=0;strokeColor=#0000FF;" parent="1" source="Jo31wumn8B36piIQokWZ-8" target="Jo31wumn8B36piIQokWZ-5" edge="1">
          <mxGeometry width="50" height="50" relative="1" as="geometry">
            <mxPoint x="470" y="370" as="sourcePoint" />
            <mxPoint x="520" y="320" as="targetPoint" />
          </mxGeometry>
        </mxCell>
        <mxCell id="Jo31wumn8B36piIQokWZ-26" value="" style="endArrow=none;html=1;rounded=0;exitX=1;exitY=0.25;exitDx=0;exitDy=0;entryX=0;entryY=0.5;entryDx=0;entryDy=0;strokeColor=#33FF33;" parent="1" edge="1">
          <mxGeometry width="50" height="50" relative="1" as="geometry">
            <mxPoint x="-40" y="240" as="sourcePoint" />
            <mxPoint x="200" y="160" as="targetPoint" />
          </mxGeometry>
        </mxCell>
        <mxCell id="Jo31wumn8B36piIQokWZ-27" value="Confluent Prod Cluster" style="text;html=1;align=center;verticalAlign=middle;resizable=0;points=[];autosize=1;strokeColor=none;fillColor=none;" parent="1" vertex="1">
          <mxGeometry x="610" y="200" width="140" height="30" as="geometry" />
        </mxCell>
        <mxCell id="Jo31wumn8B36piIQokWZ-28" value="" style="aspect=fixed;html=1;points=[];align=center;image;fontSize=12;image=img/lib/azure2/compute/Virtual_Machine.svg;" parent="1" vertex="1">
          <mxGeometry x="-136.17" y="270" width="32.34" height="30" as="geometry" />
        </mxCell>
        <mxCell id="Jo31wumn8B36piIQokWZ-29" value="" style="aspect=fixed;html=1;points=[];align=center;image;fontSize=12;image=img/lib/azure2/compute/Kubernetes_Services.svg;" parent="1" vertex="1">
          <mxGeometry x="233.5" y="135" width="56.67" height="50" as="geometry" />
        </mxCell>
        <mxCell id="Jo31wumn8B36piIQokWZ-30" value="" style="aspect=fixed;html=1;points=[];align=center;image;fontSize=12;image=img/lib/azure2/compute/Kubernetes_Services.svg;" parent="1" vertex="1">
          <mxGeometry x="233.5" y="375" width="56.67" height="50" as="geometry" />
        </mxCell>
        <mxCell id="Jo31wumn8B36piIQokWZ-31" value="" style="whiteSpace=wrap;html=1;aspect=fixed;" parent="1" vertex="1">
          <mxGeometry x="200" y="717.5" width="160" height="160" as="geometry" />
        </mxCell>
        <mxCell id="Jo31wumn8B36piIQokWZ-33" value="" style="whiteSpace=wrap;html=1;aspect=fixed;" parent="1" vertex="1">
          <mxGeometry x="600" y="719.5" width="160" height="160" as="geometry" />
        </mxCell>
        <mxCell id="Jo31wumn8B36piIQokWZ-34" value="" style="aspect=fixed;html=1;points=[];align=center;image;fontSize=12;image=img/lib/azure2/networking/Private_Endpoint.svg;" parent="1" vertex="1">
          <mxGeometry x="327.27" y="782.5" width="32.73" height="30" as="geometry" />
        </mxCell>
        <mxCell id="Jo31wumn8B36piIQokWZ-37" value="" style="aspect=fixed;html=1;points=[];align=center;image;fontSize=12;image=img/lib/azure2/networking/Virtual_Networks.svg;" parent="1" vertex="1">
          <mxGeometry x="200" y="697.5" width="33.5" height="20" as="geometry" />
        </mxCell>
        <mxCell id="Jo31wumn8B36piIQokWZ-39" value="dev01-vnet" style="text;html=1;align=center;verticalAlign=middle;resizable=0;points=[];autosize=1;strokeColor=none;fillColor=none;" parent="1" vertex="1">
          <mxGeometry x="235" y="692.5" width="80" height="30" as="geometry" />
        </mxCell>
        <mxCell id="Jo31wumn8B36piIQokWZ-40" value="" style="whiteSpace=wrap;html=1;aspect=fixed;" parent="1" vertex="1">
          <mxGeometry x="-201" y="718.5" width="160" height="160" as="geometry" />
        </mxCell>
        <mxCell id="Jo31wumn8B36piIQokWZ-41" value="" style="aspect=fixed;html=1;points=[];align=center;image;fontSize=12;image=img/lib/azure2/networking/Virtual_Networks.svg;" parent="1" vertex="1">
          <mxGeometry x="-201" y="693.5" width="33.5" height="20" as="geometry" />
        </mxCell>
        <mxCell id="Jo31wumn8B36piIQokWZ-42" value="WVD" style="text;html=1;align=center;verticalAlign=middle;resizable=0;points=[];autosize=1;strokeColor=none;fillColor=none;" parent="1" vertex="1">
          <mxGeometry x="-171" y="688.5" width="50" height="30" as="geometry" />
        </mxCell>
        <mxCell id="Jo31wumn8B36piIQokWZ-43" value="" style="endArrow=none;html=1;rounded=0;exitX=1;exitY=0.5;exitDx=0;exitDy=0;entryX=0;entryY=0.5;entryDx=0;entryDy=0;" parent="1" source="Jo31wumn8B36piIQokWZ-40" target="Jo31wumn8B36piIQokWZ-31" edge="1">
          <mxGeometry width="50" height="50" relative="1" as="geometry">
            <mxPoint x="25" y="745" as="sourcePoint" />
            <mxPoint x="75" y="695" as="targetPoint" />
          </mxGeometry>
        </mxCell>
        <mxCell id="Jo31wumn8B36piIQokWZ-45" value="peering" style="text;html=1;align=center;verticalAlign=middle;resizable=0;points=[];autosize=1;strokeColor=none;fillColor=none;" parent="1" vertex="1">
          <mxGeometry x="40" y="770" width="60" height="30" as="geometry" />
        </mxCell>
        <mxCell id="Jo31wumn8B36piIQokWZ-47" value="" style="aspect=fixed;html=1;points=[];align=center;image;fontSize=12;image=img/lib/azure2/networking/Private_Link.svg;" parent="1" vertex="1">
          <mxGeometry x="600" y="777.5" width="32.73" height="30" as="geometry" />
        </mxCell>
        <mxCell id="Jo31wumn8B36piIQokWZ-51" value="Confluent Prod Cluster" style="text;html=1;align=center;verticalAlign=middle;resizable=0;points=[];autosize=1;strokeColor=none;fillColor=none;" parent="1" vertex="1">
          <mxGeometry x="610" y="720.5" width="140" height="30" as="geometry" />
        </mxCell>
        <mxCell id="Jo31wumn8B36piIQokWZ-53" value="" style="aspect=fixed;html=1;points=[];align=center;image;fontSize=12;image=img/lib/azure2/compute/Kubernetes_Services.svg;" parent="1" vertex="1">
          <mxGeometry x="260.5" y="762.5" width="42.5" height="37.5" as="geometry" />
        </mxCell>
        <mxCell id="Jo31wumn8B36piIQokWZ-55" value="" style="endArrow=none;html=1;rounded=0;exitX=1.061;exitY=0.563;exitDx=0;exitDy=0;exitPerimeter=0;entryX=-0.037;entryY=0.73;entryDx=0;entryDy=0;entryPerimeter=0;" parent="1" source="Jo31wumn8B36piIQokWZ-34" target="Jo31wumn8B36piIQokWZ-47" edge="1">
          <mxGeometry width="50" height="50" relative="1" as="geometry">
            <mxPoint x="470" y="800" as="sourcePoint" />
            <mxPoint x="520" y="750" as="targetPoint" />
          </mxGeometry>
        </mxCell>
        <mxCell id="Jo31wumn8B36piIQokWZ-56" value="Private Link" style="text;html=1;align=center;verticalAlign=middle;resizable=0;points=[];autosize=1;strokeColor=none;fillColor=none;" parent="1" vertex="1">
          <mxGeometry x="430" y="770" width="90" height="30" as="geometry" />
        </mxCell>
        <mxCell id="Jo31wumn8B36piIQokWZ-57" value="Private Link" style="text;html=1;align=center;verticalAlign=middle;resizable=0;points=[];autosize=1;strokeColor=none;fillColor=none;" parent="1" vertex="1">
          <mxGeometry x="410" y="310" width="90" height="30" as="geometry" />
        </mxCell>
        <mxCell id="Jo31wumn8B36piIQokWZ-58" value="Private Link" style="text;html=1;align=center;verticalAlign=middle;resizable=0;points=[];autosize=1;strokeColor=none;fillColor=none;" parent="1" vertex="1">
          <mxGeometry x="420" y="175" width="90" height="30" as="geometry" />
        </mxCell>
        <mxCell id="Jo31wumn8B36piIQokWZ-59" value="" style="whiteSpace=wrap;html=1;aspect=fixed;" parent="1" vertex="1">
          <mxGeometry x="200.5" y="999" width="160" height="160" as="geometry" />
        </mxCell>
        <mxCell id="Jo31wumn8B36piIQokWZ-60" value="" style="whiteSpace=wrap;html=1;aspect=fixed;" parent="1" vertex="1">
          <mxGeometry x="600.5" y="1001" width="160" height="160" as="geometry" />
        </mxCell>
        <mxCell id="Jo31wumn8B36piIQokWZ-61" value="" style="aspect=fixed;html=1;points=[];align=center;image;fontSize=12;image=img/lib/azure2/networking/Private_Endpoint.svg;" parent="1" vertex="1">
          <mxGeometry x="327.77" y="1064" width="32.73" height="30" as="geometry" />
        </mxCell>
        <mxCell id="Jo31wumn8B36piIQokWZ-62" value="" style="aspect=fixed;html=1;points=[];align=center;image;fontSize=12;image=img/lib/azure2/networking/Virtual_Networks.svg;" parent="1" vertex="1">
          <mxGeometry x="200.5" y="979" width="33.5" height="20" as="geometry" />
        </mxCell>
        <mxCell id="Jo31wumn8B36piIQokWZ-63" value="dev01-vnet" style="text;html=1;align=center;verticalAlign=middle;resizable=0;points=[];autosize=1;strokeColor=none;fillColor=none;" parent="1" vertex="1">
          <mxGeometry x="235.5" y="974" width="80" height="30" as="geometry" />
        </mxCell>
        <mxCell id="Jo31wumn8B36piIQokWZ-67" value="" style="endArrow=none;html=1;rounded=0;exitX=1;exitY=0.5;exitDx=0;exitDy=0;entryX=0;entryY=0.5;entryDx=0;entryDy=0;" parent="1" target="Jo31wumn8B36piIQokWZ-59" edge="1">
          <mxGeometry width="50" height="50" relative="1" as="geometry">
            <mxPoint x="-40.5" y="1080" as="sourcePoint" />
            <mxPoint x="75.5" y="976.5" as="targetPoint" />
          </mxGeometry>
        </mxCell>
        <mxCell id="Jo31wumn8B36piIQokWZ-68" value="P2S" style="text;html=1;align=center;verticalAlign=middle;resizable=0;points=[];autosize=1;strokeColor=none;fillColor=none;" parent="1" vertex="1">
          <mxGeometry x="45.5" y="1051.5" width="50" height="30" as="geometry" />
        </mxCell>
        <mxCell id="Jo31wumn8B36piIQokWZ-69" value="" style="aspect=fixed;html=1;points=[];align=center;image;fontSize=12;image=img/lib/azure2/networking/Private_Link.svg;" parent="1" vertex="1">
          <mxGeometry x="600.5" y="1059" width="32.73" height="30" as="geometry" />
        </mxCell>
        <mxCell id="Jo31wumn8B36piIQokWZ-70" value="Confluent Prod Cluster" style="text;html=1;align=center;verticalAlign=middle;resizable=0;points=[];autosize=1;strokeColor=none;fillColor=none;" parent="1" vertex="1">
          <mxGeometry x="610.5" y="1002" width="140" height="30" as="geometry" />
        </mxCell>
        <mxCell id="Jo31wumn8B36piIQokWZ-72" value="" style="aspect=fixed;html=1;points=[];align=center;image;fontSize=12;image=img/lib/azure2/compute/Kubernetes_Services.svg;" parent="1" vertex="1">
          <mxGeometry x="259.25" y="1021.5" width="42.5" height="37.5" as="geometry" />
        </mxCell>
        <mxCell id="Jo31wumn8B36piIQokWZ-73" value="" style="endArrow=none;html=1;rounded=0;exitX=1.061;exitY=0.563;exitDx=0;exitDy=0;exitPerimeter=0;entryX=-0.037;entryY=0.73;entryDx=0;entryDy=0;entryPerimeter=0;" parent="1" source="Jo31wumn8B36piIQokWZ-61" target="Jo31wumn8B36piIQokWZ-69" edge="1">
          <mxGeometry width="50" height="50" relative="1" as="geometry">
            <mxPoint x="470.5" y="1081.5" as="sourcePoint" />
            <mxPoint x="520.5" y="1031.5" as="targetPoint" />
          </mxGeometry>
        </mxCell>
        <mxCell id="Jo31wumn8B36piIQokWZ-74" value="Private Link" style="text;html=1;align=center;verticalAlign=middle;resizable=0;points=[];autosize=1;strokeColor=none;fillColor=none;" parent="1" vertex="1">
          <mxGeometry x="430.5" y="1051.5" width="90" height="30" as="geometry" />
        </mxCell>
        <mxCell id="Jo31wumn8B36piIQokWZ-75" value="" style="aspect=fixed;html=1;points=[];align=center;image;fontSize=12;image=img/lib/azure2/networking/Virtual_Network_Gateways.svg;" parent="1" vertex="1">
          <mxGeometry x="200.5" y="1059" width="22.61" height="30" as="geometry" />
        </mxCell>
        <mxCell id="rK_Qc9Uuuo1QHd0PWWho-1" value="" style="whiteSpace=wrap;html=1;aspect=fixed;" parent="1" vertex="1">
          <mxGeometry x="79.85" y="1360" width="160" height="160" as="geometry" />
        </mxCell>
        <mxCell id="rK_Qc9Uuuo1QHd0PWWho-2" value="" style="whiteSpace=wrap;html=1;aspect=fixed;" parent="1" vertex="1">
          <mxGeometry x="479.85" y="1362" width="160" height="160" as="geometry" />
        </mxCell>
        <mxCell id="rK_Qc9Uuuo1QHd0PWWho-3" value="" style="aspect=fixed;html=1;points=[];align=center;image;fontSize=12;image=img/lib/azure2/networking/Private_Endpoint.svg;" parent="1" vertex="1">
          <mxGeometry x="207.11999999999998" y="1425" width="32.73" height="30" as="geometry" />
        </mxCell>
        <mxCell id="rK_Qc9Uuuo1QHd0PWWho-4" value="" style="aspect=fixed;html=1;points=[];align=center;image;fontSize=12;image=img/lib/azure2/networking/Virtual_Networks.svg;" parent="1" vertex="1">
          <mxGeometry x="79.85" y="1340" width="33.5" height="20" as="geometry" />
        </mxCell>
        <mxCell id="rK_Qc9Uuuo1QHd0PWWho-5" value="spoke-vnet" style="text;html=1;align=center;verticalAlign=middle;resizable=0;points=[];autosize=1;strokeColor=none;fillColor=none;" parent="1" vertex="1">
          <mxGeometry x="114.85" y="1335" width="80" height="30" as="geometry" />
        </mxCell>
        <mxCell id="rK_Qc9Uuuo1QHd0PWWho-6" value="" style="endArrow=none;html=1;rounded=0;exitX=1;exitY=0.5;exitDx=0;exitDy=0;entryX=0;entryY=0.5;entryDx=0;entryDy=0;" parent="1" target="rK_Qc9Uuuo1QHd0PWWho-1" edge="1">
          <mxGeometry width="50" height="50" relative="1" as="geometry">
            <mxPoint x="-161.15" y="1441" as="sourcePoint" />
            <mxPoint x="-45.150000000000006" y="1337.5" as="targetPoint" />
          </mxGeometry>
        </mxCell>
        <mxCell id="rK_Qc9Uuuo1QHd0PWWho-8" value="" style="aspect=fixed;html=1;points=[];align=center;image;fontSize=12;image=img/lib/azure2/networking/Private_Link.svg;" parent="1" vertex="1">
          <mxGeometry x="479.85" y="1420" width="32.73" height="30" as="geometry" />
        </mxCell>
        <mxCell id="rK_Qc9Uuuo1QHd0PWWho-9" value="Confluent Prod Cluster" style="text;html=1;align=center;verticalAlign=middle;resizable=0;points=[];autosize=1;strokeColor=none;fillColor=none;" parent="1" vertex="1">
          <mxGeometry x="489.85" y="1363" width="140" height="30" as="geometry" />
        </mxCell>
        <mxCell id="rK_Qc9Uuuo1QHd0PWWho-10" value="" style="aspect=fixed;html=1;points=[];align=center;image;fontSize=12;image=img/lib/azure2/compute/Kubernetes_Services.svg;" parent="1" vertex="1">
          <mxGeometry x="104.35" y="1393" width="42.5" height="37.5" as="geometry" />
        </mxCell>
        <mxCell id="rK_Qc9Uuuo1QHd0PWWho-11" value="" style="endArrow=none;html=1;rounded=0;exitX=1.061;exitY=0.563;exitDx=0;exitDy=0;exitPerimeter=0;entryX=-0.037;entryY=0.73;entryDx=0;entryDy=0;entryPerimeter=0;" parent="1" source="rK_Qc9Uuuo1QHd0PWWho-3" target="rK_Qc9Uuuo1QHd0PWWho-8" edge="1">
          <mxGeometry width="50" height="50" relative="1" as="geometry">
            <mxPoint x="349.85" y="1442.5" as="sourcePoint" />
            <mxPoint x="399.85" y="1392.5" as="targetPoint" />
          </mxGeometry>
        </mxCell>
        <mxCell id="rK_Qc9Uuuo1QHd0PWWho-12" value="Private Link" style="text;html=1;align=center;verticalAlign=middle;resizable=0;points=[];autosize=1;strokeColor=none;fillColor=none;" parent="1" vertex="1">
          <mxGeometry x="309.85" y="1412.5" width="90" height="30" as="geometry" />
        </mxCell>
        <mxCell id="rK_Qc9Uuuo1QHd0PWWho-15" value="peering" style="text;html=1;align=center;verticalAlign=middle;resizable=0;points=[];autosize=1;strokeColor=none;fillColor=none;" parent="1" vertex="1">
          <mxGeometry x="-83.17999999999999" y="1412.5" width="60" height="30" as="geometry" />
        </mxCell>
        <mxCell id="rK_Qc9Uuuo1QHd0PWWho-16" value="" style="whiteSpace=wrap;html=1;aspect=fixed;" parent="1" vertex="1">
          <mxGeometry x="-320" y="1363" width="160" height="160" as="geometry" />
        </mxCell>
        <mxCell id="rK_Qc9Uuuo1QHd0PWWho-17" value="Hub-vnet" style="text;html=1;align=center;verticalAlign=middle;resizable=0;points=[];autosize=1;strokeColor=none;fillColor=none;" parent="1" vertex="1">
          <mxGeometry x="-295" y="1335" width="70" height="30" as="geometry" />
        </mxCell>
        <mxCell id="rK_Qc9Uuuo1QHd0PWWho-18" value="" style="aspect=fixed;html=1;points=[];align=center;image;fontSize=12;image=img/lib/azure2/networking/Virtual_Networks.svg;" parent="1" vertex="1">
          <mxGeometry x="-320" y="1340" width="33.5" height="20" as="geometry" />
        </mxCell>
        <mxCell id="rK_Qc9Uuuo1QHd0PWWho-19" value="" style="aspect=fixed;html=1;points=[];align=center;image;fontSize=12;image=img/lib/azure2/networking/Virtual_Network_Gateways.svg;" parent="1" vertex="1">
          <mxGeometry x="-318" y="1423" width="22.61" height="30" as="geometry" />
        </mxCell>
        <mxCell id="rK_Qc9Uuuo1QHd0PWWho-21" value="" style="endArrow=none;html=1;rounded=0;exitX=1;exitY=0.5;exitDx=0;exitDy=0;" parent="1" edge="1">
          <mxGeometry width="50" height="50" relative="1" as="geometry">
            <mxPoint x="-528" y="1440.5" as="sourcePoint" />
            <mxPoint x="-320" y="1440" as="targetPoint" />
          </mxGeometry>
        </mxCell>
        <mxCell id="rK_Qc9Uuuo1QHd0PWWho-22" value="P2S" style="text;html=1;align=center;verticalAlign=middle;resizable=0;points=[];autosize=1;strokeColor=none;fillColor=none;" parent="1" vertex="1">
          <mxGeometry x="-470" y="1412.5" width="50" height="30" as="geometry" />
        </mxCell>
        <mxCell id="rK_Qc9Uuuo1QHd0PWWho-23" value="" style="image;aspect=fixed;html=1;points=[];align=center;fontSize=12;image=img/lib/azure2/compute/Virtual_Machine.svg;" parent="1" vertex="1">
          <mxGeometry x="263.83000000000004" y="1100" width="32.34" height="30" as="geometry" />
        </mxCell>
        <mxCell id="rK_Qc9Uuuo1QHd0PWWho-24" value="DNS Forwarder" style="text;html=1;align=center;verticalAlign=middle;resizable=0;points=[];autosize=1;strokeColor=none;fillColor=none;" parent="1" vertex="1">
          <mxGeometry x="225" y="1130" width="110" height="30" as="geometry" />
        </mxCell>
        <mxCell id="rK_Qc9Uuuo1QHd0PWWho-25" value="" style="whiteSpace=wrap;html=1;aspect=fixed;" parent="1" vertex="1">
          <mxGeometry x="79.85" y="1775" width="160" height="160" as="geometry" />
        </mxCell>
        <mxCell id="rK_Qc9Uuuo1QHd0PWWho-26" value="" style="whiteSpace=wrap;html=1;aspect=fixed;" parent="1" vertex="1">
          <mxGeometry x="479.85" y="1777" width="160" height="160" as="geometry" />
        </mxCell>
        <mxCell id="rK_Qc9Uuuo1QHd0PWWho-27" value="" style="aspect=fixed;html=1;points=[];align=center;image;fontSize=12;image=img/lib/azure2/networking/Private_Endpoint.svg;" parent="1" vertex="1">
          <mxGeometry x="207.11999999999998" y="1840" width="32.73" height="30" as="geometry" />
        </mxCell>
        <mxCell id="rK_Qc9Uuuo1QHd0PWWho-28" value="" style="aspect=fixed;html=1;points=[];align=center;image;fontSize=12;image=img/lib/azure2/networking/Virtual_Networks.svg;" parent="1" vertex="1">
          <mxGeometry x="79.85" y="1755" width="33.5" height="20" as="geometry" />
        </mxCell>
        <mxCell id="rK_Qc9Uuuo1QHd0PWWho-29" value="vnet" style="text;html=1;align=center;verticalAlign=middle;resizable=0;points=[];autosize=1;strokeColor=none;fillColor=none;" parent="1" vertex="1">
          <mxGeometry x="104.35" y="1748" width="50" height="30" as="geometry" />
        </mxCell>
        <mxCell id="rK_Qc9Uuuo1QHd0PWWho-30" value="" style="endArrow=none;html=1;rounded=0;exitX=1;exitY=0.5;exitDx=0;exitDy=0;entryX=0;entryY=0.5;entryDx=0;entryDy=0;" parent="1" target="rK_Qc9Uuuo1QHd0PWWho-25" edge="1">
          <mxGeometry width="50" height="50" relative="1" as="geometry">
            <mxPoint x="-161.15" y="1856" as="sourcePoint" />
            <mxPoint x="-45.150000000000006" y="1752.5" as="targetPoint" />
          </mxGeometry>
        </mxCell>
        <mxCell id="rK_Qc9Uuuo1QHd0PWWho-31" value="Point-to-site" style="text;html=1;align=center;verticalAlign=middle;resizable=0;points=[];autosize=1;strokeColor=none;fillColor=none;" parent="1" vertex="1">
          <mxGeometry x="-95.15" y="1827.5" width="90" height="30" as="geometry" />
        </mxCell>
        <mxCell id="rK_Qc9Uuuo1QHd0PWWho-32" value="" style="aspect=fixed;html=1;points=[];align=center;image;fontSize=12;image=img/lib/azure2/networking/Private_Link.svg;" parent="1" vertex="1">
          <mxGeometry x="479.85" y="1835" width="32.73" height="30" as="geometry" />
        </mxCell>
        <mxCell id="rK_Qc9Uuuo1QHd0PWWho-33" value="3rd party Service" style="text;html=1;align=center;verticalAlign=middle;resizable=0;points=[];autosize=1;strokeColor=none;fillColor=none;" parent="1" vertex="1">
          <mxGeometry x="504.85" y="1778" width="110" height="30" as="geometry" />
        </mxCell>
        <mxCell id="rK_Qc9Uuuo1QHd0PWWho-34" value="" style="aspect=fixed;html=1;points=[];align=center;image;fontSize=12;image=img/lib/azure2/compute/Kubernetes_Services.svg;" parent="1" vertex="1">
          <mxGeometry x="138.6" y="1797.5" width="42.5" height="37.5" as="geometry" />
        </mxCell>
        <mxCell id="rK_Qc9Uuuo1QHd0PWWho-35" value="" style="endArrow=none;html=1;rounded=0;exitX=1.061;exitY=0.563;exitDx=0;exitDy=0;exitPerimeter=0;entryX=-0.037;entryY=0.73;entryDx=0;entryDy=0;entryPerimeter=0;" parent="1" source="rK_Qc9Uuuo1QHd0PWWho-27" target="rK_Qc9Uuuo1QHd0PWWho-32" edge="1">
          <mxGeometry width="50" height="50" relative="1" as="geometry">
            <mxPoint x="349.85" y="1857.5" as="sourcePoint" />
            <mxPoint x="399.85" y="1807.5" as="targetPoint" />
          </mxGeometry>
        </mxCell>
        <mxCell id="rK_Qc9Uuuo1QHd0PWWho-36" value="Private Link" style="text;html=1;align=center;verticalAlign=middle;resizable=0;points=[];autosize=1;strokeColor=none;fillColor=none;" parent="1" vertex="1">
          <mxGeometry x="309.85" y="1827.5" width="90" height="30" as="geometry" />
        </mxCell>
        <mxCell id="rK_Qc9Uuuo1QHd0PWWho-37" value="" style="aspect=fixed;html=1;points=[];align=center;image;fontSize=12;image=img/lib/azure2/networking/Virtual_Network_Gateways.svg;" parent="1" vertex="1">
          <mxGeometry x="79.85" y="1835" width="22.61" height="30" as="geometry" />
        </mxCell>
        <mxCell id="rK_Qc9Uuuo1QHd0PWWho-39" value="" style="image;aspect=fixed;html=1;points=[];align=center;fontSize=12;image=img/lib/azure2/compute/Virtual_Machine.svg;" parent="1" vertex="1">
          <mxGeometry x="143.18000000000004" y="1876" width="32.34" height="30" as="geometry" />
        </mxCell>
        <mxCell id="rK_Qc9Uuuo1QHd0PWWho-40" value="DNS Forwarder" style="text;html=1;align=center;verticalAlign=middle;resizable=0;points=[];autosize=1;strokeColor=none;fillColor=none;" parent="1" vertex="1">
          <mxGeometry x="104.35" y="1906" width="110" height="30" as="geometry" />
        </mxCell>
        <mxCell id="rK_Qc9Uuuo1QHd0PWWho-43" value="" style="image;aspect=fixed;html=1;points=[];align=center;fontSize=12;image=img/lib/azure2/networking/DNS_Zones.svg;" parent="1" vertex="1">
          <mxGeometry x="-65.35" y="1210" width="40" height="40" as="geometry" />
        </mxCell>
        <mxCell id="rK_Qc9Uuuo1QHd0PWWho-44" value="Private DNS Zones" style="text;html=1;align=center;verticalAlign=middle;resizable=0;points=[];autosize=1;strokeColor=none;fillColor=none;" parent="1" vertex="1">
          <mxGeometry x="-104.83" y="1180" width="130" height="30" as="geometry" />
        </mxCell>
        <mxCell id="rK_Qc9Uuuo1QHd0PWWho-45" value="" style="endArrow=none;html=1;rounded=0;exitX=0.967;exitY=0.842;exitDx=0;exitDy=0;exitPerimeter=0;entryX=-0.012;entryY=0.102;entryDx=0;entryDy=0;entryPerimeter=0;" parent="1" source="rK_Qc9Uuuo1QHd0PWWho-43" target="rK_Qc9Uuuo1QHd0PWWho-1" edge="1">
          <mxGeometry width="50" height="50" relative="1" as="geometry">
            <mxPoint y="1300" as="sourcePoint" />
            <mxPoint x="50" y="1250" as="targetPoint" />
          </mxGeometry>
        </mxCell>
        <mxCell id="rK_Qc9Uuuo1QHd0PWWho-49" value="" style="image;aspect=fixed;html=1;points=[];align=center;fontSize=12;image=img/lib/azure2/networking/DNS_Private_Resolver.svg;" parent="1" vertex="1">
          <mxGeometry x="-62.93000000000001" y="1588.98" width="35.16" height="31.02" as="geometry" />
        </mxCell>
        <mxCell id="rK_Qc9Uuuo1QHd0PWWho-50" value="Private DNS resolver" style="text;html=1;align=center;verticalAlign=middle;resizable=0;points=[];autosize=1;strokeColor=none;fillColor=none;" parent="1" vertex="1">
          <mxGeometry x="-123.17999999999999" y="1620" width="140" height="30" as="geometry" />
        </mxCell>
        <mxCell id="rK_Qc9Uuuo1QHd0PWWho-51" value="" style="endArrow=none;dashed=1;html=1;rounded=0;" parent="1" edge="1">
          <mxGeometry width="50" height="50" relative="1" as="geometry">
            <mxPoint x="-170" y="1350" as="sourcePoint" />
            <mxPoint x="-70" y="1250" as="targetPoint" />
          </mxGeometry>
        </mxCell>
        <mxCell id="rK_Qc9Uuuo1QHd0PWWho-52" value="" style="image;aspect=fixed;html=1;points=[];align=center;fontSize=12;image=img/lib/azure2/networking/DNS_Zones.svg;" parent="1" vertex="1">
          <mxGeometry x="280" y="1680" width="40" height="40" as="geometry" />
        </mxCell>
        <mxCell id="rK_Qc9Uuuo1QHd0PWWho-53" value="Private DNS zone" style="text;html=1;align=center;verticalAlign=middle;resizable=0;points=[];autosize=1;strokeColor=none;fillColor=none;" parent="1" vertex="1">
          <mxGeometry x="250" y="1650" width="120" height="30" as="geometry" />
        </mxCell>
        <mxCell id="rK_Qc9Uuuo1QHd0PWWho-54" value="" style="endArrow=none;html=1;rounded=0;entryX=-0.017;entryY=0.775;entryDx=0;entryDy=0;entryPerimeter=0;exitX=0.75;exitY=0;exitDx=0;exitDy=0;" parent="1" edge="1">
          <mxGeometry width="50" height="50" relative="1" as="geometry">
            <mxPoint x="200.8499999999999" y="1773" as="sourcePoint" />
            <mxPoint x="280.32000000000016" y="1709" as="targetPoint" />
          </mxGeometry>
        </mxCell>
        <mxCell id="rK_Qc9Uuuo1QHd0PWWho-57" value="User" style="text;html=1;align=center;verticalAlign=middle;resizable=0;points=[];autosize=1;strokeColor=none;fillColor=none;" parent="1" vertex="1">
          <mxGeometry x="-207" y="1870" width="50" height="30" as="geometry" />
        </mxCell>
        <mxCell id="rK_Qc9Uuuo1QHd0PWWho-58" value="" style="image;aspect=fixed;html=1;points=[];align=center;fontSize=12;image=img/lib/azure2/compute/Virtual_Machine.svg;" parent="1" vertex="1">
          <mxGeometry x="-200.99999999999997" y="1428" width="32.34" height="30" as="geometry" />
        </mxCell>
        <mxCell id="rK_Qc9Uuuo1QHd0PWWho-59" value="DNS Forwarder" style="text;html=1;align=center;verticalAlign=middle;resizable=0;points=[];autosize=1;strokeColor=none;fillColor=none;" parent="1" vertex="1">
          <mxGeometry x="-260" y="1453" width="110" height="30" as="geometry" />
        </mxCell>
        <mxCell id="l-uOarbjvMGtZZw62YAb-1" value="" style="whiteSpace=wrap;html=1;aspect=fixed;" parent="1" vertex="1">
          <mxGeometry x="40.5" y="2205" width="160" height="160" as="geometry" />
        </mxCell>
        <mxCell id="l-uOarbjvMGtZZw62YAb-2" value="" style="whiteSpace=wrap;html=1;aspect=fixed;" parent="1" vertex="1">
          <mxGeometry x="40.5" y="2445" width="160" height="160" as="geometry" />
        </mxCell>
        <mxCell id="l-uOarbjvMGtZZw62YAb-3" value="" style="whiteSpace=wrap;html=1;aspect=fixed;" parent="1" vertex="1">
          <mxGeometry x="440.5" y="2325" width="160" height="160" as="geometry" />
        </mxCell>
        <mxCell id="l-uOarbjvMGtZZw62YAb-4" value="" style="aspect=fixed;html=1;points=[];align=center;image;fontSize=12;image=img/lib/azure2/networking/Private_Endpoint.svg;" parent="1" vertex="1">
          <mxGeometry x="167.76999999999998" y="2270" width="32.73" height="30" as="geometry" />
        </mxCell>
        <mxCell id="l-uOarbjvMGtZZw62YAb-5" value="" style="aspect=fixed;html=1;points=[];align=center;image;fontSize=12;image=img/lib/azure2/networking/Private_Endpoint.svg;" parent="1" vertex="1">
          <mxGeometry x="167.76999999999998" y="2505" width="32.73" height="30" as="geometry" />
        </mxCell>
        <mxCell id="l-uOarbjvMGtZZw62YAb-6" value="" style="aspect=fixed;html=1;points=[];align=center;image;fontSize=12;image=img/lib/azure2/networking/Virtual_Networks.svg;" parent="1" vertex="1">
          <mxGeometry x="40.5" y="2425" width="33.5" height="20" as="geometry" />
        </mxCell>
        <mxCell id="l-uOarbjvMGtZZw62YAb-7" value="" style="aspect=fixed;html=1;points=[];align=center;image;fontSize=12;image=img/lib/azure2/networking/Virtual_Networks.svg;" parent="1" vertex="1">
          <mxGeometry x="40.5" y="2185" width="33.5" height="20" as="geometry" />
        </mxCell>
        <mxCell id="l-uOarbjvMGtZZw62YAb-8" value="vnet2" style="text;html=1;align=center;verticalAlign=middle;resizable=0;points=[];autosize=1;strokeColor=none;fillColor=none;" parent="1" vertex="1">
          <mxGeometry x="95.5" y="2420" width="50" height="30" as="geometry" />
        </mxCell>
        <mxCell id="l-uOarbjvMGtZZw62YAb-9" value="vnet1" style="text;html=1;align=center;verticalAlign=middle;resizable=0;points=[];autosize=1;strokeColor=none;fillColor=none;" parent="1" vertex="1">
          <mxGeometry x="90.5" y="2180" width="50" height="30" as="geometry" />
        </mxCell>
        <mxCell id="l-uOarbjvMGtZZw62YAb-17" value="" style="aspect=fixed;html=1;points=[];align=center;image;fontSize=12;image=img/lib/azure2/networking/Private_Link.svg;" parent="1" vertex="1">
          <mxGeometry x="440.5" y="2385" width="32.73" height="30" as="geometry" />
        </mxCell>
        <mxCell id="l-uOarbjvMGtZZw62YAb-18" value="" style="endArrow=none;html=1;rounded=0;exitX=1.037;exitY=0.693;exitDx=0;exitDy=0;exitPerimeter=0;entryX=0.037;entryY=0.673;entryDx=0;entryDy=0;entryPerimeter=0;strokeColor=#33FF33;" parent="1" source="l-uOarbjvMGtZZw62YAb-4" target="l-uOarbjvMGtZZw62YAb-17" edge="1">
          <mxGeometry width="50" height="50" relative="1" as="geometry">
            <mxPoint x="310.5" y="2365" as="sourcePoint" />
            <mxPoint x="360.5" y="2315" as="targetPoint" />
          </mxGeometry>
        </mxCell>
        <mxCell id="l-uOarbjvMGtZZw62YAb-19" value="" style="endArrow=none;html=1;rounded=0;exitX=1.061;exitY=0.647;exitDx=0;exitDy=0;exitPerimeter=0;entryX=0;entryY=0.5;entryDx=0;entryDy=0;strokeColor=#0000FF;" parent="1" source="l-uOarbjvMGtZZw62YAb-5" target="l-uOarbjvMGtZZw62YAb-3" edge="1">
          <mxGeometry width="50" height="50" relative="1" as="geometry">
            <mxPoint x="310.5" y="2495" as="sourcePoint" />
            <mxPoint x="360.5" y="2445" as="targetPoint" />
          </mxGeometry>
        </mxCell>
        <mxCell id="l-uOarbjvMGtZZw62YAb-21" value="Service" style="text;html=1;align=center;verticalAlign=middle;resizable=0;points=[];autosize=1;strokeColor=none;fillColor=none;" parent="1" vertex="1">
          <mxGeometry x="490.5" y="2325" width="60" height="30" as="geometry" />
        </mxCell>
        <mxCell id="l-uOarbjvMGtZZw62YAb-23" value="" style="aspect=fixed;html=1;points=[];align=center;image;fontSize=12;image=img/lib/azure2/compute/Kubernetes_Services.svg;" parent="1" vertex="1">
          <mxGeometry x="74" y="2260" width="56.67" height="50" as="geometry" />
        </mxCell>
        <mxCell id="l-uOarbjvMGtZZw62YAb-24" value="" style="aspect=fixed;html=1;points=[];align=center;image;fontSize=12;image=img/lib/azure2/compute/Kubernetes_Services.svg;" parent="1" vertex="1">
          <mxGeometry x="74" y="2500" width="56.67" height="50" as="geometry" />
        </mxCell>
        <mxCell id="l-uOarbjvMGtZZw62YAb-25" value="Private Link" style="text;html=1;align=center;verticalAlign=middle;resizable=0;points=[];autosize=1;strokeColor=none;fillColor=none;" parent="1" vertex="1">
          <mxGeometry x="250.5" y="2435" width="90" height="30" as="geometry" />
        </mxCell>
        <mxCell id="l-uOarbjvMGtZZw62YAb-26" value="Private Link" style="text;html=1;align=center;verticalAlign=middle;resizable=0;points=[];autosize=1;strokeColor=none;fillColor=none;" parent="1" vertex="1">
          <mxGeometry x="260.5" y="2300" width="90" height="30" as="geometry" />
        </mxCell>
        <mxCell id="l-uOarbjvMGtZZw62YAb-27" value="" style="image;aspect=fixed;html=1;points=[];align=center;fontSize=12;image=img/lib/azure2/networking/DNS_Zones.svg;" parent="1" vertex="1">
          <mxGeometry x="-241" y="2375" width="40" height="40" as="geometry" />
        </mxCell>
        <mxCell id="l-uOarbjvMGtZZw62YAb-28" value="" style="endArrow=none;html=1;rounded=0;entryX=0;entryY=0.5;entryDx=0;entryDy=0;" parent="1" source="l-uOarbjvMGtZZw62YAb-27" target="l-uOarbjvMGtZZw62YAb-1" edge="1">
          <mxGeometry width="50" height="50" relative="1" as="geometry">
            <mxPoint x="-100" y="2350" as="sourcePoint" />
            <mxPoint x="-50" y="2300" as="targetPoint" />
          </mxGeometry>
        </mxCell>
        <mxCell id="l-uOarbjvMGtZZw62YAb-29" value="" style="endArrow=none;html=1;rounded=0;entryX=0;entryY=0.5;entryDx=0;entryDy=0;exitX=1.025;exitY=0.875;exitDx=0;exitDy=0;exitPerimeter=0;" parent="1" source="l-uOarbjvMGtZZw62YAb-27" target="l-uOarbjvMGtZZw62YAb-2" edge="1">
          <mxGeometry width="50" height="50" relative="1" as="geometry">
            <mxPoint x="-110" y="2530" as="sourcePoint" />
            <mxPoint x="-60" y="2480" as="targetPoint" />
          </mxGeometry>
        </mxCell>
        <mxCell id="l-uOarbjvMGtZZw62YAb-30" value="*.example.com&lt;br&gt;10.11.1.1&lt;br&gt;10.12.1.1" style="text;html=1;align=center;verticalAlign=middle;resizable=0;points=[];autosize=1;strokeColor=none;fillColor=none;" parent="1" vertex="1">
          <mxGeometry x="-335" y="2360" width="100" height="60" as="geometry" />
        </mxCell>
        <mxCell id="5NBjuWBHCYj0ScceNKoL-1" value="" style="whiteSpace=wrap;html=1;aspect=fixed;" parent="1" vertex="1">
          <mxGeometry x="104.19999999999999" y="2950" width="160" height="160" as="geometry" />
        </mxCell>
        <mxCell id="5NBjuWBHCYj0ScceNKoL-2" value="" style="whiteSpace=wrap;html=1;aspect=fixed;" parent="1" vertex="1">
          <mxGeometry x="399.85" y="2955" width="160" height="160" as="geometry" />
        </mxCell>
        <mxCell id="5NBjuWBHCYj0ScceNKoL-3" value="" style="aspect=fixed;html=1;points=[];align=center;image;fontSize=12;image=img/lib/azure2/networking/Private_Endpoint.svg;" parent="1" vertex="1">
          <mxGeometry x="231.46999999999997" y="3015" width="32.73" height="30" as="geometry" />
        </mxCell>
        <mxCell id="5NBjuWBHCYj0ScceNKoL-4" value="" style="aspect=fixed;html=1;points=[];align=center;image;fontSize=12;image=img/lib/azure2/networking/Virtual_Networks.svg;" parent="1" vertex="1">
          <mxGeometry x="104.19999999999999" y="2930" width="33.5" height="20" as="geometry" />
        </mxCell>
        <mxCell id="5NBjuWBHCYj0ScceNKoL-5" value="dev01-vnet" style="text;html=1;align=center;verticalAlign=middle;resizable=0;points=[];autosize=1;strokeColor=none;fillColor=none;" parent="1" vertex="1">
          <mxGeometry x="139.2" y="2925" width="80" height="30" as="geometry" />
        </mxCell>
        <mxCell id="5NBjuWBHCYj0ScceNKoL-6" value="" style="endArrow=none;html=1;rounded=0;exitX=1;exitY=0.5;exitDx=0;exitDy=0;entryX=0;entryY=0.5;entryDx=0;entryDy=0;" parent="1" target="5NBjuWBHCYj0ScceNKoL-1" edge="1">
          <mxGeometry width="50" height="50" relative="1" as="geometry">
            <mxPoint x="-136.8" y="3031" as="sourcePoint" />
            <mxPoint x="-20.800000000000004" y="2927.5" as="targetPoint" />
          </mxGeometry>
        </mxCell>
        <mxCell id="5NBjuWBHCYj0ScceNKoL-7" value="" style="aspect=fixed;html=1;points=[];align=center;image;fontSize=12;image=img/lib/azure2/networking/Private_Link.svg;" parent="1" vertex="1">
          <mxGeometry x="407.77000000000004" y="3015" width="32.73" height="30" as="geometry" />
        </mxCell>
        <mxCell id="5NBjuWBHCYj0ScceNKoL-8" value="Confluent Prod Cluster" style="text;html=1;align=center;verticalAlign=middle;resizable=0;points=[];autosize=1;strokeColor=none;fillColor=none;" parent="1" vertex="1">
          <mxGeometry x="420.00000000000006" y="2960" width="140" height="30" as="geometry" />
        </mxCell>
        <mxCell id="5NBjuWBHCYj0ScceNKoL-9" value="" style="aspect=fixed;html=1;points=[];align=center;image;fontSize=12;image=img/lib/azure2/compute/Kubernetes_Services.svg;" parent="1" vertex="1">
          <mxGeometry x="162.57999999999998" y="2965" width="42.5" height="37.5" as="geometry" />
        </mxCell>
        <mxCell id="5NBjuWBHCYj0ScceNKoL-10" value="" style="endArrow=none;html=1;rounded=0;exitX=1.061;exitY=0.563;exitDx=0;exitDy=0;exitPerimeter=0;" parent="1" source="5NBjuWBHCYj0ScceNKoL-3" edge="1">
          <mxGeometry width="50" height="50" relative="1" as="geometry">
            <mxPoint x="374.20000000000005" y="3032.5" as="sourcePoint" />
            <mxPoint x="400" y="3032" as="targetPoint" />
          </mxGeometry>
        </mxCell>
        <mxCell id="5NBjuWBHCYj0ScceNKoL-11" value="Private Link" style="text;html=1;align=center;verticalAlign=middle;resizable=0;points=[];autosize=1;strokeColor=none;fillColor=none;" parent="1" vertex="1">
          <mxGeometry x="290.1700000000001" y="3002.5" width="90" height="30" as="geometry" />
        </mxCell>
        <mxCell id="5NBjuWBHCYj0ScceNKoL-12" value="peering" style="text;html=1;align=center;verticalAlign=middle;resizable=0;points=[];autosize=1;strokeColor=none;fillColor=none;" parent="1" vertex="1">
          <mxGeometry x="-58.82999999999999" y="3002.5" width="60" height="30" as="geometry" />
        </mxCell>
        <mxCell id="5NBjuWBHCYj0ScceNKoL-13" value="" style="whiteSpace=wrap;html=1;aspect=fixed;" parent="1" vertex="1">
          <mxGeometry x="-420" y="2955" width="284.35" height="284.35" as="geometry" />
        </mxCell>
        <mxCell id="5NBjuWBHCYj0ScceNKoL-14" value="Hub-vnet" style="text;html=1;align=center;verticalAlign=middle;resizable=0;points=[];autosize=1;strokeColor=none;fillColor=none;" parent="1" vertex="1">
          <mxGeometry x="-395" y="2925" width="70" height="30" as="geometry" />
        </mxCell>
        <mxCell id="5NBjuWBHCYj0ScceNKoL-15" value="" style="aspect=fixed;html=1;points=[];align=center;image;fontSize=12;image=img/lib/azure2/networking/Virtual_Networks.svg;" parent="1" vertex="1">
          <mxGeometry x="-420" y="2930" width="33.5" height="20" as="geometry" />
        </mxCell>
        <mxCell id="5NBjuWBHCYj0ScceNKoL-16" value="" style="aspect=fixed;html=1;points=[];align=center;image;fontSize=12;image=img/lib/azure2/networking/Virtual_Network_Gateways.svg;" parent="1" vertex="1">
          <mxGeometry x="-397.64" y="3190" width="22.61" height="30" as="geometry" />
        </mxCell>
        <mxCell id="5NBjuWBHCYj0ScceNKoL-17" value="" style="aspect=fixed;html=1;points=[];align=center;image;fontSize=12;image=img/lib/azure2/general/Help_and_Support.svg;" parent="1" vertex="1">
          <mxGeometry x="16.82000000000005" y="3220" width="24.35" height="30" as="geometry" />
        </mxCell>
        <mxCell id="5NBjuWBHCYj0ScceNKoL-18" value="" style="endArrow=none;html=1;rounded=0;" parent="1" target="5NBjuWBHCYj0ScceNKoL-25" edge="1">
          <mxGeometry width="50" height="50" relative="1" as="geometry">
            <mxPoint x="30" y="3210" as="sourcePoint" />
            <mxPoint x="70.83000000000004" y="3160" as="targetPoint" />
          </mxGeometry>
        </mxCell>
        <mxCell id="5NBjuWBHCYj0ScceNKoL-19" value="P2S" style="text;html=1;align=center;verticalAlign=middle;resizable=0;points=[];autosize=1;strokeColor=none;fillColor=none;" parent="1" vertex="1">
          <mxGeometry x="16.82000000000005" y="3130" width="50" height="30" as="geometry" />
        </mxCell>
        <mxCell id="5NBjuWBHCYj0ScceNKoL-20" value="" style="image;aspect=fixed;html=1;points=[];align=center;fontSize=12;image=img/lib/azure2/networking/DNS_Zones.svg;" parent="1" vertex="1">
          <mxGeometry x="-40.99999999999999" y="2800" width="40" height="40" as="geometry" />
        </mxCell>
        <mxCell id="5NBjuWBHCYj0ScceNKoL-21" value="" style="endArrow=none;html=1;rounded=0;exitX=0.967;exitY=0.842;exitDx=0;exitDy=0;exitPerimeter=0;" parent="1" source="5NBjuWBHCYj0ScceNKoL-20" edge="1">
          <mxGeometry width="50" height="50" relative="1" as="geometry">
            <mxPoint x="24.35" y="2890" as="sourcePoint" />
            <mxPoint x="100" y="2960" as="targetPoint" />
          </mxGeometry>
        </mxCell>
        <mxCell id="5NBjuWBHCYj0ScceNKoL-23" value="" style="image;aspect=fixed;html=1;points=[];align=center;fontSize=12;image=img/lib/azure2/compute/Virtual_Machine.svg;" parent="1" vertex="1">
          <mxGeometry x="167.66000000000003" y="3045" width="32.34" height="30" as="geometry" />
        </mxCell>
        <mxCell id="5NBjuWBHCYj0ScceNKoL-24" value="DNS Forwarder" style="text;html=1;align=center;verticalAlign=middle;resizable=0;points=[];autosize=1;strokeColor=none;fillColor=none;" parent="1" vertex="1">
          <mxGeometry x="130.67000000000002" y="3075" width="110" height="30" as="geometry" />
        </mxCell>
        <mxCell id="5NBjuWBHCYj0ScceNKoL-25" value="" style="aspect=fixed;html=1;points=[];align=center;image;fontSize=12;image=img/lib/azure2/networking/Virtual_Network_Gateways.svg;" parent="1" vertex="1">
          <mxGeometry x="110.35000000000001" y="3075" width="22.61" height="30" as="geometry" />
        </mxCell>
        <mxCell id="5NBjuWBHCYj0ScceNKoL-26" value="" style="image;aspect=fixed;html=1;points=[];align=center;fontSize=12;image=img/lib/azure2/compute/Virtual_Machine.svg;" parent="1" vertex="1">
          <mxGeometry x="-276.16999999999996" y="3105" width="32.34" height="30" as="geometry" />
        </mxCell>
        <mxCell id="5NBjuWBHCYj0ScceNKoL-27" value="" style="image;aspect=fixed;html=1;points=[];align=center;fontSize=12;image=img/lib/azure2/compute/Virtual_Machine.svg;" parent="1" vertex="1">
          <mxGeometry x="-271.16999999999996" y="3000" width="32.34" height="30" as="geometry" />
        </mxCell>
        <mxCell id="5NBjuWBHCYj0ScceNKoL-28" value="Build Agent 1" style="text;html=1;align=center;verticalAlign=middle;resizable=0;points=[];autosize=1;strokeColor=none;fillColor=none;" parent="1" vertex="1">
          <mxGeometry x="-297" y="3030" width="90" height="30" as="geometry" />
        </mxCell>
        <mxCell id="5NBjuWBHCYj0ScceNKoL-29" value="Build Agent 2" style="text;html=1;align=center;verticalAlign=middle;resizable=0;points=[];autosize=1;strokeColor=none;fillColor=none;" parent="1" vertex="1">
          <mxGeometry x="-302.17" y="3130" width="90" height="30" as="geometry" />
        </mxCell>
        <mxCell id="5NBjuWBHCYj0ScceNKoL-35" value="" style="endArrow=none;html=1;rounded=0;entryX=0.025;entryY=0.8;entryDx=0;entryDy=0;entryPerimeter=0;" parent="1" target="5NBjuWBHCYj0ScceNKoL-20" edge="1">
          <mxGeometry width="50" height="50" relative="1" as="geometry">
            <mxPoint x="-150" y="2950" as="sourcePoint" />
            <mxPoint x="-90" y="2890" as="targetPoint" />
          </mxGeometry>
        </mxCell>
        <mxCell id="5NBjuWBHCYj0ScceNKoL-36" value="Option 1" style="text;html=1;align=center;verticalAlign=middle;resizable=0;points=[];autosize=1;strokeColor=none;fillColor=none;" parent="1" vertex="1">
          <mxGeometry x="-153.82999999999998" y="2860" width="70" height="30" as="geometry" />
        </mxCell>
        <mxCell id="5NBjuWBHCYj0ScceNKoL-39" value="Option 1 - Link Hub VNet to Private DNS Zone&lt;br&gt;Option 2 - Re-configure Hub Vnet DNS&lt;br&gt;Option 3 - Private DNS Resolver (*need testing)" style="text;html=1;align=left;verticalAlign=middle;resizable=0;points=[];autosize=1;strokeColor=none;fillColor=none;" parent="1" vertex="1">
          <mxGeometry x="-680" y="3280" width="280" height="60" as="geometry" />
        </mxCell>
        <mxCell id="5NBjuWBHCYj0ScceNKoL-40" value="" style="image;aspect=fixed;html=1;points=[];align=center;fontSize=12;image=img/lib/azure2/devops/Azure_DevOps.svg;" parent="1" vertex="1">
          <mxGeometry x="-650" y="3048" width="62" height="62" as="geometry" />
        </mxCell>
        <mxCell id="5NBjuWBHCYj0ScceNKoL-41" value="" style="image;aspect=fixed;html=1;points=[];align=center;fontSize=12;image=img/lib/azure2/networking/Firewalls.svg;" parent="1" vertex="1">
          <mxGeometry x="-410" y="3065" width="47.33" height="40" as="geometry" />
        </mxCell>
        <mxCell id="5NBjuWBHCYj0ScceNKoL-42" value="" style="endArrow=classic;html=1;rounded=0;exitX=1;exitY=0.597;exitDx=0;exitDy=0;exitPerimeter=0;" parent="1" source="5NBjuWBHCYj0ScceNKoL-40" target="5NBjuWBHCYj0ScceNKoL-41" edge="1">
          <mxGeometry width="50" height="50" relative="1" as="geometry">
            <mxPoint x="-510" y="3100" as="sourcePoint" />
            <mxPoint x="-460" y="3050" as="targetPoint" />
          </mxGeometry>
        </mxCell>
        <mxCell id="5NBjuWBHCYj0ScceNKoL-43" value="" style="endArrow=classic;html=1;rounded=0;exitX=0.972;exitY=0.425;exitDx=0;exitDy=0;exitPerimeter=0;entryX=-0.118;entryY=0.4;entryDx=0;entryDy=0;entryPerimeter=0;dashed=1;" parent="1" source="5NBjuWBHCYj0ScceNKoL-41" target="5NBjuWBHCYj0ScceNKoL-27" edge="1">
          <mxGeometry width="50" height="50" relative="1" as="geometry">
            <mxPoint x="-540" y="3030" as="sourcePoint" />
            <mxPoint x="-490" y="2980" as="targetPoint" />
            <Array as="points">
              <mxPoint x="-364" y="3012" />
            </Array>
          </mxGeometry>
        </mxCell>
        <mxCell id="5NBjuWBHCYj0ScceNKoL-45" value="" style="endArrow=classic;html=1;rounded=0;exitX=0.486;exitY=0.975;exitDx=0;exitDy=0;exitPerimeter=0;dashed=1;" parent="1" source="5NBjuWBHCYj0ScceNKoL-41" target="5NBjuWBHCYj0ScceNKoL-26" edge="1">
          <mxGeometry width="50" height="50" relative="1" as="geometry">
            <mxPoint x="-510" y="3200" as="sourcePoint" />
            <mxPoint x="-460" y="3150" as="targetPoint" />
            <Array as="points">
              <mxPoint x="-387" y="3120" />
            </Array>
          </mxGeometry>
        </mxCell>
        <mxCell id="5NBjuWBHCYj0ScceNKoL-46" value="" style="image;aspect=fixed;html=1;points=[];align=center;fontSize=12;image=img/lib/azure2/networking/Network_Security_Groups.svg;" parent="1" vertex="1">
          <mxGeometry x="-157.83" y="3020.5" width="17.71" height="21.5" as="geometry" />
        </mxCell>
        <mxCell id="5NBjuWBHCYj0ScceNKoL-47" value="" style="image;aspect=fixed;html=1;points=[];align=center;fontSize=12;image=img/lib/azure2/networking/Network_Security_Groups.svg;" parent="1" vertex="1">
          <mxGeometry x="108.06" y="3020" width="14.83" height="18" as="geometry" />
        </mxCell>
        <mxCell id="d8VdTCZnUC-Yjv91LLX4-1" value="" style="image;aspect=fixed;html=1;points=[];align=center;fontSize=12;image=img/lib/azure2/networking/DNS_Zones.svg;" vertex="1" parent="1">
          <mxGeometry x="-400" y="681.25" width="44.5" height="44.5" as="geometry" />
        </mxCell>
        <mxCell id="d8VdTCZnUC-Yjv91LLX4-2" value="WVD DNS server" style="text;html=1;align=center;verticalAlign=middle;resizable=0;points=[];autosize=1;strokeColor=none;fillColor=none;" vertex="1" parent="1">
          <mxGeometry x="-437.75" y="651.25" width="120" height="30" as="geometry" />
        </mxCell>
        <mxCell id="d8VdTCZnUC-Yjv91LLX4-3" value="" style="endArrow=none;dashed=1;html=1;rounded=0;exitX=0.472;exitY=1.118;exitDx=0;exitDy=0;exitPerimeter=0;" edge="1" parent="1" source="d8VdTCZnUC-Yjv91LLX4-1">
          <mxGeometry width="50" height="50" relative="1" as="geometry">
            <mxPoint x="-330" y="830" as="sourcePoint" />
            <mxPoint x="-200" y="799" as="targetPoint" />
            <Array as="points">
              <mxPoint x="-379" y="799" />
            </Array>
          </mxGeometry>
        </mxCell>
        <mxCell id="d8VdTCZnUC-Yjv91LLX4-7" value="" style="image;aspect=fixed;html=1;points=[];align=center;fontSize=12;image=img/lib/azure2/networking/Network_Security_Groups.svg;" vertex="1" parent="1">
          <mxGeometry x="-70.93" y="785" width="20.59" height="25" as="geometry" />
        </mxCell>
        <mxCell id="d8VdTCZnUC-Yjv91LLX4-8" value="" style="image;aspect=fixed;html=1;points=[];align=center;fontSize=12;image=img/lib/azure2/networking/Network_Security_Groups.svg;" vertex="1" parent="1">
          <mxGeometry x="204.40999999999997" y="785" width="20.59" height="25" as="geometry" />
        </mxCell>
        <mxCell id="d8VdTCZnUC-Yjv91LLX4-9" value="" style="image;aspect=fixed;html=1;points=[];align=center;fontSize=12;image=img/lib/azure2/networking/DNS_Zones.svg;" vertex="1" parent="1">
          <mxGeometry x="298.17" y="580" width="44.5" height="44.5" as="geometry" />
        </mxCell>
        <mxCell id="d8VdTCZnUC-Yjv91LLX4-10" value="" style="endArrow=none;html=1;rounded=0;exitX=0.75;exitY=0;exitDx=0;exitDy=0;" edge="1" parent="1" source="Jo31wumn8B36piIQokWZ-31" target="d8VdTCZnUC-Yjv91LLX4-9">
          <mxGeometry width="50" height="50" relative="1" as="geometry">
            <mxPoint x="318" y="710" as="sourcePoint" />
            <mxPoint x="490" y="610" as="targetPoint" />
          </mxGeometry>
        </mxCell>
        <mxCell id="d8VdTCZnUC-Yjv91LLX4-11" value="Private DNS Zone" style="text;html=1;align=center;verticalAlign=middle;resizable=0;points=[];autosize=1;strokeColor=none;fillColor=none;" vertex="1" parent="1">
          <mxGeometry x="264.2" y="550" width="120" height="30" as="geometry" />
        </mxCell>
        <mxCell id="d8VdTCZnUC-Yjv91LLX4-14" value="" style="image;aspect=fixed;html=1;points=[];align=center;fontSize=12;image=img/lib/azure2/other/Windows_Virtual_Desktop.svg;" vertex="1" parent="1">
          <mxGeometry x="-171.68" y="740.5" width="29.5" height="29.5" as="geometry" />
        </mxCell>
        <mxCell id="d8VdTCZnUC-Yjv91LLX4-15" value="" style="image;aspect=fixed;html=1;points=[];align=center;fontSize=12;image=img/lib/azure2/other/Windows_Virtual_Desktop.svg;" vertex="1" parent="1">
          <mxGeometry x="-142.18" y="790" width="29.5" height="29.5" as="geometry" />
        </mxCell>
        <mxCell id="d8VdTCZnUC-Yjv91LLX4-16" value="" style="image;aspect=fixed;html=1;points=[];align=center;fontSize=12;image=img/lib/azure2/other/Windows_Virtual_Desktop.svg;" vertex="1" parent="1">
          <mxGeometry x="-112.68" y="840" width="29.5" height="29.5" as="geometry" />
        </mxCell>
        <mxCell id="d8VdTCZnUC-Yjv91LLX4-17" value="" style="image;aspect=fixed;html=1;points=[];align=center;fontSize=12;image=img/lib/azure2/identity/Users.svg;" vertex="1" parent="1">
          <mxGeometry x="-70.93" y="1066" width="27.43" height="30" as="geometry" />
        </mxCell>
        <mxCell id="d8VdTCZnUC-Yjv91LLX4-18" value="" style="image;aspect=fixed;html=1;points=[];align=center;fontSize=12;image=img/lib/azure2/identity/Users.svg;" vertex="1" parent="1">
          <mxGeometry x="-553.72" y="1423" width="27.43" height="30" as="geometry" />
        </mxCell>
        <mxCell id="d8VdTCZnUC-Yjv91LLX4-19" value="" style="image;aspect=fixed;html=1;points=[];align=center;fontSize=12;image=img/lib/azure2/identity/Users.svg;" vertex="1" parent="1">
          <mxGeometry x="-194.93" y="1842" width="27.43" height="30" as="geometry" />
        </mxCell>
      </root>
    </mxGraphModel>
  </diagram>
</mxfile>
